<svg width="31" height="15" viewBox="0 0 31 15" fill="none" xmlns="http://www.w3.org/2000/svg">
<path d="M1.075 14C0.908333 14 0.758333 13.9417 0.625 13.825C0.508333 13.6917 0.45 13.5417 0.45 13.375V1.25C0.45 1.06667 0.508333 0.916666 0.625 0.8C0.758333 0.683333 0.908333 0.624999 1.075 0.624999H4.55C5.28333 0.624999 5.9 0.733333 6.4 0.95C6.9 1.16667 7.30833 1.425 7.625 1.725C7.90833 2.00833 8.13333 2.36667 8.3 2.8C8.46667 3.21667 8.55 3.625 8.55 4.025C8.55 4.475 8.46667 4.90833 8.3 5.325C8.13333 5.725 7.90833 6.06667 7.625 6.35C7.575 6.4 7.51667 6.45833 7.45 6.525C7.4 6.575 7.33333 6.625 7.25 6.675C7.81667 6.90833 8.28333 7.20833 8.65 7.575C9.38333 8.30833 9.75 9.18333 9.75 10.2C9.75 10.65 9.66667 11.1 9.5 11.55C9.33333 11.9833 9.075 12.375 8.725 12.725C8.35833 13.0917 7.875 13.4 7.275 13.65C6.675 13.8833 5.9 14 4.95 14H1.075ZM4.775 6.25C5.20833 6.21667 5.59167 6.125 5.925 5.975C6.275 5.80833 6.54167 5.63333 6.725 5.45C7.10833 5.1 7.3 4.625 7.3 4.025C7.3 3.475 7.10833 3.00833 6.725 2.625C6.50833 2.39167 6.21667 2.20833 5.85 2.075C5.5 1.94167 5.06667 1.875 4.55 1.875H1.7V6.25H4.775ZM1.7 7.5V12.75H4.95C5.68333 12.75 6.275 12.6667 6.725 12.5C7.19167 12.3333 7.55833 12.1083 7.825 11.825C8.275 11.375 8.5 10.8333 8.5 10.2C8.5 9.55 8.25 8.975 7.75 8.475C7.1 7.825 6.19167 7.5 5.025 7.5H1.7ZM21.633 11.65C20.833 12.6167 20.0747 13.2833 19.358 13.65C18.6413 14.0167 17.8663 14.2 17.033 14.2C16.1997 14.2 15.4663 14.0417 14.833 13.725C14.2163 13.3917 13.733 12.9583 13.383 12.425C13.0497 11.875 12.883 11.275 12.883 10.625C12.883 10.125 12.958 9.65 13.108 9.2C13.258 8.75 13.5497 8.30833 13.983 7.875C14.4163 7.425 15.0497 6.975 15.883 6.525C15.433 6.04167 15.083 5.56667 14.833 5.1C14.583 4.61667 14.458 4.10833 14.458 3.575C14.458 2.64167 14.758 1.89167 15.358 1.325C15.9747 0.741666 16.7413 0.449999 17.658 0.449999C18.608 0.449999 19.3913 0.749999 20.008 1.35C20.6247 1.93333 20.933 2.64167 20.933 3.475C20.933 4.175 20.7247 4.80833 20.308 5.375C19.8913 5.94167 19.208 6.41667 18.258 6.8L18.083 6.875L21.483 9.825L23.708 6.675C23.8413 6.49167 24.008 6.4 24.208 6.4C24.3913 6.4 24.5413 6.46667 24.658 6.6C24.7747 6.71667 24.833 6.85833 24.833 7.025C24.833 7.14167 24.7913 7.25833 24.708 7.375L22.408 10.65L24.983 12.9C25.133 13.0167 25.208 13.175 25.208 13.375C25.208 13.5417 25.1497 13.6917 25.033 13.825C24.9163 13.9417 24.7663 14 24.583 14C24.4497 14 24.3163 13.95 24.183 13.85L21.633 11.65ZM15.708 3.575C15.708 4.025 15.833 4.44167 16.083 4.825C16.333 5.19167 16.658 5.56667 17.058 5.95C17.1747 5.9 17.2913 5.85 17.408 5.8C17.5247 5.75 17.6413 5.7 17.758 5.65C19.0413 5.11667 19.683 4.39167 19.683 3.475C19.683 2.95833 19.483 2.53333 19.083 2.2C18.683 1.86667 18.208 1.7 17.658 1.7C17.108 1.7 16.6413 1.875 16.258 2.225C15.8913 2.55833 15.708 3.00833 15.708 3.575ZM17.033 12.95C17.7163 12.95 18.3413 12.7917 18.908 12.475C19.4913 12.1417 20.0913 11.5917 20.708 10.825L16.833 7.45C15.8163 7.96667 15.108 8.475 14.708 8.975C14.3247 9.45833 14.133 10.0083 14.133 10.625C14.133 11.3083 14.408 11.8667 14.958 12.3C15.5247 12.7333 16.2163 12.95 17.033 12.95ZM30.8777 13.375C30.8777 13.5417 30.8194 13.6917 30.7027 13.825C30.5861 13.9417 30.4361 14 30.2527 14C30.0861 14 29.9361 13.9417 29.8027 13.825C29.6861 13.6917 29.6277 13.5417 29.6277 13.375V1.25C29.6277 1.06667 29.6861 0.916666 29.8027 0.8C29.9361 0.683333 30.0861 0.624999 30.2527 0.624999C30.4361 0.624999 30.5861 0.683333 30.7027 0.8C30.8194 0.916666 30.8777 1.06667 30.8777 1.25V13.375Z" fill="white"/>
</svg>
