<svg width="30" height="25" viewBox="0 0 30 25" fill="none" xmlns="http://www.w3.org/2000/svg">
<path fill-rule="evenodd" clip-rule="evenodd" d="M30 4.42237C30 2.8405 29.3107 1.46055 28.2264 0.671003C27.1143 -0.138034 25.6156 -0.284245 24.3081 0.613911L24.2956 0.622266L17.4413 5.62548V5.39155C17.4413 3.94893 16.7812 2.69986 15.7612 1.99108C14.7202 1.26699 13.3262 1.13749 12.1052 1.93817L1.75683 8.73074C0.542816 9.52724 0 10.9058 0 12.1841C0 13.4624 0.542816 14.841 1.75822 15.6375L12.108 22.4287C13.3276 23.2293 14.7216 23.0998 15.7626 22.3771C16.7826 21.667 17.4427 20.4179 17.4427 18.9753V18.7427L24.2969 23.746L24.3109 23.7543C25.617 24.6525 27.1157 24.5063 28.2278 23.6972C29.3121 22.9077 30 21.5291 30 19.9459V4.42237ZM17.4413 16.1541L25.5068 22.0416C26.0133 22.3855 26.5366 22.3409 26.9929 22.0095C27.4799 21.6544 27.9069 20.9345 27.9069 19.9459V4.42237C27.9069 3.4337 27.4799 2.71379 26.9929 2.3587C26.5366 2.02729 26.0147 1.98273 25.5068 2.32667L17.4413 8.21412V16.1541ZM13.255 3.68574C13.4468 3.54942 13.6772 3.4778 13.9127 3.4813C14.1481 3.48481 14.3763 3.56327 14.5639 3.70524C14.984 3.99766 15.3482 4.5839 15.3482 5.39294V18.9753C15.3482 19.7829 14.984 20.372 14.5639 20.663C14.3766 20.8048 14.1488 20.8834 13.9136 20.8871C13.6785 20.8909 13.4482 20.8197 13.2564 20.6839L2.90525 13.8927C2.40569 13.5641 2.09173 12.9249 2.09173 12.1841C2.09173 11.4447 2.40569 10.8055 2.90525 10.4769L13.255 3.68574Z" fill="white"/>
</svg>
