<svg width="30" height="30" viewBox="0 0 30 30" fill="none" xmlns="http://www.w3.org/2000/svg">
<path d="M10 15.7143V4.28571C10 2.71429 11.2857 1.42857 12.8571 1.42857H25.7143C27.2857 1.42857 28.5714 2.71429 28.5714 4.28571V12.8571H23.6714L21.8429 10.3714C21.8251 10.3418 21.7999 10.3174 21.7699 10.3004C21.7399 10.2834 21.7059 10.2744 21.6714 10.2744C21.6369 10.2744 21.603 10.2834 21.5729 10.3004C21.5429 10.3174 21.5178 10.3418 21.5 10.3714L18.6571 14.2857C18.5714 14.3714 18.4 14.3857 18.3143 14.2857L16.2714 11.7857C16.251 11.7621 16.2258 11.7432 16.1975 11.7302C16.1691 11.7173 16.1383 11.7106 16.1071 11.7106C16.076 11.7106 16.0452 11.7173 16.0168 11.7302C15.9885 11.7432 15.9632 11.7621 15.9429 11.7857L12.9286 15.5857C12.8143 15.7143 12.9143 15.9286 13.0857 15.9286H22.1429V18.5714H12.8571C11.2714 18.5714 10 17.3 10 15.7143ZM5.71429 28.5714V27.1429H2.85714V28.5714H0V0H2.85714V1.42857H5.71429V0H9.12857C7.91429 1.05714 7.14286 2.57143 7.14286 4.28571V15.7143C7.14286 18.8714 9.7 21.4286 12.8571 21.4286H19.5714C18.1 22.6143 17.1429 24.4 17.1429 26.4286C17.1429 27.1857 17.3 27.9 17.5429 28.5714H5.71429ZM2.85714 7.14286H5.71429V4.28571H2.85714V7.14286ZM2.85714 12.8571H5.71429V10H2.85714V12.8571ZM2.85714 18.5714H5.71429V15.7143H2.85714V18.5714ZM5.71429 24.2857V21.4286H2.85714V24.2857H5.71429ZM30 15.7143V18.5714H27.1429V26.4286C27.1429 27.3758 26.7666 28.2842 26.0968 28.954C25.427 29.6237 24.5186 30 23.5714 30C22.6242 30 21.7158 29.6237 21.046 28.954C20.3763 28.2842 20 27.3758 20 26.4286C20.0003 25.8357 20.1482 25.2523 20.4303 24.7308C20.7124 24.2094 21.1199 23.7664 21.616 23.4418C22.1121 23.1172 22.6813 22.9213 23.272 22.8716C23.8628 22.8219 24.4566 22.92 25 23.1571V15.7143H30Z" fill="white"/>
</svg>
