<svg width="30" height="34" viewBox="0 0 30 34" fill="none" xmlns="http://www.w3.org/2000/svg">
<path d="M26.6667 26.6667H10C9.11594 26.6667 8.2681 26.3155 7.64298 25.6904C7.01786 25.0652 6.66667 24.2174 6.66667 23.3333V3.33333C6.66667 2.44928 7.01786 1.60143 7.64298 0.976311C8.2681 0.351189 9.11594 0 10 0H11.6667V8.33333L15 5.83333L18.3333 8.33333V0H26.6667C27.5507 0 28.3986 0.351189 29.0237 0.976311C29.6488 1.60143 30 2.44928 30 3.33333V23.3333C30 24.2174 29.6488 25.0652 29.0237 25.6904C28.3986 26.3155 27.5507 26.6667 26.6667 26.6667ZM23.3333 30V33.3333H3.33333C2.44928 33.3333 1.60143 32.9821 0.976311 32.357C0.351189 31.7319 0 30.8841 0 30V6.66667H3.33333V30H23.3333Z" fill="white"/>
</svg>
